<?xml version="1.0" encoding="UTF-8" standalone="no"?>
<svg width="20px" height="16px" viewBox="0 0 20 16" version="1.1" xmlns="http://www.w3.org/2000/svg" xmlns:xlink="http://www.w3.org/1999/xlink" xmlns:sketch="http://www.bohemiancoding.com/sketch/ns">
    <!-- Generator: Sketch 3.2.2 (9983) - http://www.bohemiancoding.com/sketch -->
    <title>Rectangle 16</title>
    <desc>Created with Sketch.</desc>
    <defs></defs>
    <g id="Page-1" stroke="none" stroke-width="1" fill="none" fill-rule="evenodd" sketch:type="MSPage">
        <path d="M7.17070571,12 L0,12 L0,14 L7.17070571,14 C7.58254212,15.1651924 8.69378117,16 10,16 C11.3062188,16 12.4174579,15.1651924 12.8292943,14 L20,14 L20,12 L12.8292943,12 C12.4174579,10.8348076 11.3062188,10 10,10 C8.69378117,10 7.58254212,10.8348076 7.17070571,12 Z M0.170705708,2 L0,2 L0,4 L0.170705708,4 C0.582542116,5.16519237 1.69378117,6 3,6 C4.30621883,6 5.41745788,5.16519237 5.82929429,4 L20,4 L20,2 L5.82929429,2 C5.41745788,0.834807627 4.30621883,0 3,0 C1.69378117,0 0.582542116,0.834807627 0.170705708,2 L0.170705708,2 Z" id="Rectangle-16" fill="#000000" sketch:type="MSShapeGroup"></path>
    </g>
</svg>
